<svg width="17" height="12" viewBox="0 0 17 12" fill="none" xmlns="http://www.w3.org/2000/svg">
<path d="M6.05081 0.176272C5.98964 0.1952 5.93866 0.209922 5.88768 0.226746C5.0679 0.479116 4.27872 0.805094 3.53236 1.24043C3.17754 1.44653 2.83495 1.67577 2.51887 1.94286C2.49236 1.96389 2.46789 1.98703 2.44341 2.01016C2.44138 2.01226 2.44138 2.01647 2.4373 2.02698C2.45973 2.01647 2.48012 2.00595 2.49847 1.99754C3.19181 1.63581 3.90758 1.32876 4.65394 1.10583C5.13316 0.960722 5.6185 0.849259 6.11403 0.775651C6.46682 0.723074 6.8196 0.678909 7.17443 0.647363C7.64753 0.605301 8.12267 0.594786 8.59781 0.613713C8.88942 0.626332 9.179 0.647363 9.46857 0.681012C10.0518 0.752517 10.6248 0.868186 11.1917 1.02802C12.0176 1.26146 12.8068 1.58744 13.5633 2.00175C13.5776 2.01016 13.5899 2.01647 13.6102 2.01437C13.5939 1.99964 13.5776 1.98282 13.5613 1.9681C13.235 1.68839 12.8782 1.45284 12.5091 1.23833C11.7953 0.824022 11.0408 0.508559 10.2598 0.262499C10.2333 0.254086 10.2088 0.245674 10.1741 0.235159C10.2374 0.159448 10.2945 0.0900459 10.3556 0.0227473C10.3658 0.0101288 10.3923 0.0080257 10.4087 0.0080257C10.5371 0.016438 10.6656 0.0206442 10.7941 0.0353658C11.3365 0.0984583 11.8626 0.237262 12.3765 0.432848C13.0474 0.689424 13.6673 1.04064 14.2404 1.48229C14.2669 1.50121 14.2852 1.53276 14.3015 1.5622C14.4871 1.92393 14.6523 2.29408 14.8052 2.67053C15.1662 3.55382 15.4659 4.45815 15.7025 5.38561C15.835 5.90928 15.9492 6.43715 16.039 6.96923C16.1063 7.36671 16.1593 7.7684 16.2001 8.17009C16.2531 8.69165 16.2816 9.21532 16.2857 9.74109C16.2857 9.80629 16.2694 9.85676 16.2327 9.90934C15.99 10.2563 15.6984 10.555 15.3721 10.8179C14.7441 11.3226 14.0364 11.6486 13.2636 11.8295C12.8822 11.9199 12.4968 11.9662 12.1053 11.9872C12.0502 11.9893 12.0156 11.9746 11.9809 11.9304C11.7097 11.5897 11.4385 11.249 11.1652 10.9083C11.1489 10.8873 11.1326 10.8662 11.1122 10.8389C11.1387 10.8305 11.1591 10.8221 11.1795 10.8158C11.6771 10.6643 12.1481 10.4498 12.5825 10.1533C12.9271 9.91985 13.2391 9.64856 13.5022 9.31837C13.543 9.2679 13.5797 9.21532 13.6184 9.16274L13.6102 9.15223C13.5939 9.16274 13.5756 9.17326 13.5593 9.18377C13.1657 9.44666 12.7558 9.6759 12.3235 9.86097C11.7688 10.0986 11.208 10.3131 10.6228 10.4603C10.166 10.576 9.70716 10.6664 9.24017 10.7148C8.73444 10.7674 8.22871 10.78 7.72298 10.7506C6.58713 10.6854 5.49207 10.4288 4.4337 10.004C4.06664 9.85676 3.70366 9.69693 3.35903 9.49924C3.17142 9.39198 2.98585 9.27841 2.79824 9.16695C2.79008 9.16274 2.78193 9.15854 2.76765 9.15854C2.77785 9.17536 2.78804 9.19429 2.80028 9.21111C2.94914 9.41932 3.12044 9.60439 3.31009 9.77474C3.77911 10.1975 4.31543 10.5045 4.89865 10.7211C4.9741 10.7506 5.05159 10.7737 5.12908 10.801C5.1454 10.8074 5.16171 10.8137 5.18414 10.8221C5.17191 10.8389 5.16375 10.8557 5.15355 10.8683C4.86602 11.2322 4.57645 11.596 4.28892 11.9598C4.26649 11.9872 4.2461 12.0019 4.20939 11.9998C3.18366 11.9577 2.2191 11.7012 1.34223 11.1396C0.883403 10.8452 0.477596 10.4856 0.145202 10.0418C0.09626 9.97664 0.0513969 9.90513 0.00449463 9.83573C0.00449463 9.75161 -0.00162306 9.66959 0.00041617 9.58546C0.00857309 9.32258 0.0146908 9.05969 0.0310046 8.79681C0.0513969 8.50658 0.077907 8.21425 0.108495 7.92613C0.155398 7.48238 0.226771 7.04073 0.30834 6.60119C0.416419 6.02284 0.553048 5.4487 0.712108 4.88297C0.979247 3.93238 1.3096 3.00702 1.71541 2.109C1.80106 1.91762 1.89486 1.73255 1.98663 1.54328C1.99886 1.51804 2.01925 1.4928 2.04373 1.47387C2.80436 0.89763 3.63636 0.472807 4.5479 0.218334C4.94147 0.108974 5.3432 0.0332627 5.75105 0.0080257C5.80407 0.00381954 5.86321 -0.00879896 5.91011 0.0101288C5.95089 0.0269534 5.9774 0.0816336 6.01003 0.119489C6.02227 0.134211 6.0345 0.151035 6.05285 0.174169L6.05081 0.176272ZM6.95623 6.89141C6.96031 6.44556 6.80125 6.03125 6.49945 5.73262C6.16705 5.40243 5.7694 5.26573 5.31261 5.33934C4.94351 5.39823 4.64782 5.59592 4.42759 5.90507C4.15841 6.27942 4.0646 6.70214 4.1319 7.16271C4.19511 7.58964 4.38884 7.94085 4.72124 8.20374C5.00265 8.42456 5.32281 8.5192 5.6756 8.48135C6.05489 8.43928 6.36282 8.25631 6.60141 7.95347C6.84408 7.64432 6.95419 7.28679 6.95419 6.89141H6.95623ZM9.20143 6.91875C9.20551 6.97343 9.20754 7.04284 9.2157 7.11224C9.26464 7.51182 9.42778 7.85463 9.71939 8.12382C10.0151 8.39932 10.3658 8.52341 10.7635 8.48135C11.1672 8.43928 11.4894 8.23739 11.7301 7.903C11.985 7.55178 12.0788 7.1522 12.0339 6.71896C11.9952 6.33199 11.8422 5.9976 11.571 5.7242C11.053 5.20264 10.2537 5.18161 9.71531 5.68214C9.3666 6.00812 9.20958 6.42243 9.19939 6.91875H9.20143Z" fill="#ADB3C2"/>
</svg>
