<svg width="15" height="15" viewBox="0 0 15 15" fill="none" xmlns="http://www.w3.org/2000/svg">
<path d="M8.70493 14.9946V9.66809C9.17993 9.66809 9.64499 9.65316 10.11 9.67306C10.3587 9.68301 10.4582 9.60838 10.5005 9.35462C10.6 8.75504 10.7343 8.16044 10.8636 7.52354H8.67011C8.70244 6.8742 8.69001 6.25224 8.77456 5.64768C8.83674 5.20982 9.20232 4.99586 9.72208 4.96103C10.0827 4.93615 10.4458 4.9262 10.8462 4.9063V3.05283C9.91855 2.9558 8.97849 2.81151 8.04589 3.12498C7.02376 3.4683 6.39955 4.44355 6.37716 5.73973C6.36722 6.31443 6.37716 6.88664 6.37716 7.49369H4.4871V9.64321C5.0392 9.64321 5.57886 9.6457 6.11604 9.64321C6.28515 9.64321 6.41198 9.64321 6.40949 9.87458C6.39955 11.534 6.39955 13.1934 6.39706 14.8503C6.39706 14.8827 6.37965 14.9175 6.3697 14.9548C6.33737 14.9673 6.30753 14.9921 6.2752 14.9921C5.26302 14.9872 4.25084 15.022 3.24115 14.9648C1.33118 14.8578 0.115075 13.6188 0.0305189 11.7007C-0.0167327 10.5737 0.00564963 9.44169 0.0031627 8.3122C0.0031627 6.75976 0.0106235 5.20484 0.0131104 3.65241C0.0131104 2.9981 0.105127 2.35871 0.411019 1.77157C1.01286 0.612225 2.02752 0.0574287 3.28094 0.0375257C6.07873 -0.00476814 8.87901 -0.0196954 11.6768 0.0375257C13.6489 0.0773317 14.9421 1.40337 14.972 3.36381C15.0118 6.1154 15.0068 8.86948 14.972 11.6236C14.9521 13.3128 13.9897 14.5194 12.4602 14.8628C12.0175 14.9623 11.55 14.9772 11.0949 14.9897C10.309 15.0096 9.52313 14.9946 8.70244 14.9946H8.70493Z" fill="#ADB3C2"/>
</svg>
