<svg width="17" height="16" viewBox="0 0 17 16" fill="none" xmlns="http://www.w3.org/2000/svg">
<path d="M10.1362 11.8731C10.6647 11.7412 11.184 11.6519 11.6725 11.4813C12.9959 11.0172 13.6859 10.0492 13.8813 8.73608C13.9821 8.06168 14.0366 7.37339 13.7764 6.7208C13.6324 6.3598 13.3887 6.03747 13.2016 5.69134C13.1574 5.61101 13.1245 5.49795 13.146 5.41464C13.3044 4.81263 13.2715 4.22253 13.0915 3.62846C13.0247 3.4063 12.9003 3.31704 12.6864 3.37754C12.2617 3.49754 11.8411 3.63341 11.4226 3.77325C11.3136 3.80995 11.2036 3.86648 11.1172 3.93987C10.8097 4.19674 10.4817 4.19476 10.0991 4.11145C8.9351 3.85656 7.76693 3.90119 6.60905 4.17195C6.4476 4.20963 6.32832 4.18782 6.19464 4.10451C5.69899 3.79706 5.18483 3.52829 4.59972 3.40927C4.0835 3.30415 4.01564 3.34778 3.88915 3.83673C3.75136 4.36733 3.74005 4.89495 3.89841 5.42456C3.92 5.49795 3.90561 5.61299 3.85728 5.66853C3.09735 6.5522 2.97909 7.57373 3.14362 8.66071C3.26497 9.46404 3.54364 10.194 4.16577 10.7732C4.69021 11.2611 5.33291 11.522 6.02702 11.6816C6.30775 11.7461 6.59362 11.7878 6.83219 11.8304C6.69748 12.1607 6.5638 12.4989 6.41881 12.8341C6.39619 12.8876 6.33552 12.9422 6.27896 12.964C5.45631 13.2764 4.5699 13.1683 4.01461 12.3313C3.77912 11.9772 3.51587 11.642 3.09015 11.4952C2.89169 11.4268 2.66546 11.4238 2.45054 11.4168C2.3837 11.4149 2.28395 11.4823 2.25516 11.5428C2.23459 11.5864 2.29732 11.6777 2.34051 11.7352C2.38061 11.7888 2.43923 11.8344 2.4999 11.8671C2.98424 12.1299 3.27114 12.5623 3.4624 13.0324C3.79146 13.8388 4.43519 14.1373 5.26195 14.169C5.61878 14.1829 5.97766 14.1363 6.36431 14.1155C6.36431 14.6391 6.38282 15.1737 6.35608 15.7063C6.34374 15.9562 6.03628 16.0564 5.71133 15.9473C4.90719 15.6785 4.15035 15.3145 3.4768 14.8137C0.836085 12.848 -0.373214 10.2436 0.100839 7.07189C0.60677 3.68003 2.65929 1.38507 6.06096 0.370483C9.98295 -0.799809 14.0469 0.877279 16.0027 4.34551C18.1097 8.08251 16.7709 12.9253 12.9969 15.1529C12.4735 15.4623 11.8977 15.6944 11.3321 15.9304C10.893 16.1139 10.638 15.9264 10.64 15.4643C10.6431 14.7918 10.6472 14.1194 10.6493 13.448C10.6514 12.8698 10.5629 12.3184 10.1372 11.8731H10.1362Z" fill="#ADB3C2"/>
</svg>
