<svg width="17" height="15" viewBox="0 0 17 15" fill="none" xmlns="http://www.w3.org/2000/svg">
<path d="M0 8.91441V8.62467C0.62731 6.79565 1.25561 4.96664 1.88094 3.13763C2.1931 2.22265 2.49035 1.3029 2.81942 0.39268C2.87509 0.240183 3.06 0.130576 3.18626 0.000953107C3.30754 0.136294 3.42982 0.270682 3.54912 0.406977C3.56304 0.42318 3.56006 0.453679 3.56702 0.476554C4.1317 2.13591 4.70333 3.79337 5.25409 5.45749C5.3386 5.71292 5.45591 5.78822 5.72731 5.78631C7.57743 5.77488 9.42754 5.77488 11.2777 5.78631C11.553 5.78822 11.6644 5.70339 11.7479 5.45273C12.3046 3.76573 12.8763 2.08349 13.4608 0.405071C13.5155 0.249714 13.6964 0.134388 13.8177 0C13.942 0.130576 14.1269 0.241136 14.1816 0.394586C14.6091 1.60217 15.0087 2.82024 15.4223 4.0326C15.9452 5.56424 16.4741 7.09302 17 8.62371V8.91346C16.8429 9.08025 16.7077 9.27564 16.5238 9.40812C15.7911 9.9371 15.0435 10.447 14.3009 10.9636C12.3702 12.3094 10.4386 13.6552 8.50795 15C8.45526 14.9676 8.41251 14.9428 8.37175 14.9142C5.69848 13.0538 3.02322 11.1933 0.354912 9.32425C0.209766 9.22322 0.11731 9.05261 0 8.91441Z" fill="#ADB3C2"/>
</svg>
