<svg width="15" height="15" viewBox="0 0 15 15" fill="none" xmlns="http://www.w3.org/2000/svg">
<path d="M0.0172889 7.50032C0.0172889 6.26205 -0.0277811 5.02285 0.0276174 3.7874C0.113063 1.90554 1.75154 0.136589 3.62946 0.0679013C6.22004 -0.0261918 8.81814 -0.0196053 11.4087 0.0697832C13.2153 0.131885 14.912 1.93 14.9533 3.74036C15.0096 6.23006 15.0209 8.72353 14.9542 11.2132C14.9035 13.0866 13.2566 14.7944 11.3843 14.9083C9.51391 15.0221 7.63505 14.9892 5.75902 14.9995C5.02569 15.0033 4.28861 14.9845 3.55904 14.9177C1.76281 14.7521 0.0980392 13.0179 0.0313732 11.2132C-0.0146357 9.97685 0.0229226 8.73764 0.0229226 7.50032H0.0172889ZM7.49327 3.9022C5.54118 3.89373 3.87828 5.5413 3.88579 7.47774C3.89331 9.44993 5.48766 11.0495 7.47355 11.0759C9.41626 11.1013 11.0932 9.46122 11.1073 7.52008C11.1223 5.54412 9.49137 3.91067 7.49327 3.90126V3.9022ZM11.3965 2.69875C10.9036 2.70627 10.5064 3.11934 10.5195 3.60863C10.5336 4.10073 10.9505 4.49781 11.436 4.48087C11.8932 4.46487 12.297 4.05086 12.3017 3.59357C12.3064 3.12875 11.8641 2.69216 11.3965 2.69969V2.69875Z" fill="#ADB3C2"/>
<path d="M7.49327 3.9022C9.49137 3.91161 11.1233 5.54412 11.1073 7.52102C11.0923 9.46216 9.41626 11.1022 7.47355 11.0768C5.4886 11.0505 3.89331 9.45087 3.88579 7.47868C3.87828 5.54224 5.54118 3.89373 7.49327 3.90314V3.9022ZM5.09893 7.48715C5.09048 8.79222 6.15901 9.86582 7.48388 9.88464C8.77307 9.90252 9.89982 8.7988 9.90357 7.51255C9.90733 6.20183 8.83974 5.11318 7.53083 5.09248C6.19751 5.07177 5.10644 6.14444 5.09893 7.48715Z" fill="white"/>
<path d="M11.3975 2.69875C11.8651 2.69122 12.3073 3.12781 12.3026 3.59263C12.2979 4.05086 11.8942 4.46487 11.4369 4.47993C10.9515 4.49687 10.5346 4.09979 10.5205 3.60769C10.5073 3.1184 10.9045 2.70533 11.3975 2.6978V2.69875Z" fill="white"/>
<path d="M5.09987 7.48715C5.10832 6.14538 6.19845 5.07177 7.53177 5.09248C8.84068 5.11318 9.90827 6.20183 9.90451 7.51255C9.90076 8.79786 8.77401 9.90252 7.48482 9.88464C6.15995 9.86582 5.09142 8.79222 5.09987 7.48715Z" fill="#ADB3C2"/>
</svg>
