<svg width="17" height="17" viewBox="0 0 17 17" fill="none" xmlns="http://www.w3.org/2000/svg">
<path d="M15.9998 8.43881C16.033 12.585 12.696 15.9552 8.57195 15.9996C4.39243 16.0439 1.01111 12.6626 1.00003 8.5275C0.988941 4.38128 4.337 1.01109 8.48326 1C12.6184 1 15.9665 4.32585 15.9998 8.43881ZM4.93565 11.5318C4.63632 10.6671 4.45894 9.78024 4.42569 8.86008H1.74281C1.82041 10.2015 2.26386 11.421 3.05099 12.5074C3.64965 12.1083 4.28156 11.7868 4.94674 11.5318H4.93565ZM12.1528 11.5651C12.7847 11.8201 13.3834 12.1305 13.9488 12.5074C14.7359 11.421 15.1794 10.2015 15.257 8.86008H15.2126C14.3812 8.86008 13.5497 8.86008 12.7293 8.86008C12.696 8.86008 12.685 8.86008 12.6739 8.90443C12.6628 9.13724 12.6406 9.35896 12.6184 9.59177C12.563 10.0796 12.4632 10.5674 12.3191 11.0441C12.2637 11.2214 12.2082 11.3877 12.1528 11.5651ZM2.94012 4.62517C2.20843 5.67836 1.80933 6.8424 1.73172 8.1284H4.42569C4.45894 7.28585 4.61415 6.45439 4.86914 5.6451C4.19287 5.37903 3.54987 5.03536 2.94012 4.62517ZM15.257 8.1284C15.1794 6.8424 14.7803 5.67836 14.0486 4.62517C13.461 5.02427 12.8513 5.34577 12.2082 5.61184C12.4743 6.43222 12.6406 7.26368 12.6739 8.1284H15.257ZM11.4544 11.3212C11.5985 10.9221 11.7094 10.523 11.787 10.1128C11.8646 9.70263 11.92 9.28136 11.9311 8.87117H8.86019V10.8778C9.7471 10.911 10.6118 11.0551 11.4544 11.3212ZM5.15738 8.86008C5.20173 9.69155 5.35693 10.5008 5.63409 11.288C6.04428 11.166 6.45447 11.0662 6.87575 10.9997C7.29703 10.9332 7.71831 10.8889 8.13959 10.8667V8.86008H5.16847H5.15738ZM11.9422 8.1284C11.9089 7.35237 11.7648 6.59851 11.5209 5.86682C10.6562 6.14398 9.76927 6.29918 8.87128 6.33244V8.1284H11.9422ZM5.56757 5.88899C5.33476 6.62068 5.20172 7.36345 5.16847 8.1284H8.13959V6.33244C7.70722 6.32135 7.27486 6.26592 6.84249 6.19941C6.41013 6.1218 5.98885 6.02203 5.56757 5.88899ZM8.87128 1.73169V5.60075C9.69166 5.5675 10.4788 5.42338 11.2659 5.17948L11.2437 5.13514C10.9555 4.46997 10.6007 3.84914 10.1905 3.26158C9.81361 2.72944 9.38125 2.23056 8.91563 1.76494C8.90454 1.75386 8.88237 1.74277 8.87128 1.73169ZM8.1285 1.77603C7.14182 2.78487 6.3547 3.90457 5.81147 5.21274C6.57642 5.44555 7.34137 5.57858 8.1285 5.61184V1.77603ZM8.86019 15.2679C8.86019 15.2679 8.91563 15.2457 8.92671 15.2235C9.1817 14.9686 9.42559 14.7025 9.65841 14.4142C10.2349 13.7269 10.7227 12.973 11.0996 12.1638C11.1218 12.1083 11.144 12.064 11.1661 12.0086C10.7892 11.8423 9.21496 11.5762 8.84911 11.6095V15.2568L8.86019 15.2679ZM5.88907 11.9864C6.4323 13.2059 7.18617 14.259 8.11741 15.2125V11.6205C7.36355 11.6538 6.62077 11.7757 5.88907 11.9864ZM5.11303 4.96884C5.57866 3.83806 6.22166 2.82922 7.00879 1.89798C5.56757 2.23056 4.37025 2.95116 3.38358 4.04869C3.9268 4.41454 4.50329 4.71386 5.11303 4.95776V4.96884ZM11.9422 4.93559C12.5187 4.70278 13.073 4.40345 13.594 4.05978C12.6295 2.97334 11.4544 2.26382 10.0575 1.92015C10.8446 2.82922 11.4876 3.82697 11.9533 4.93559H11.9422ZM5.20173 12.2192C4.60307 12.452 4.04875 12.7402 3.51661 13.0839C3.9268 13.5384 4.58089 14.1038 5.41236 14.5251C5.92233 14.7912 6.46556 14.9796 7.03096 15.1016C6.27709 14.2258 5.65626 13.2724 5.20173 12.2192ZM11.8757 12.2524C11.6428 12.7735 11.3879 13.2613 11.0774 13.7269C10.7781 14.2036 10.4344 14.6471 10.0686 15.0683C11.3989 14.7468 12.5297 14.0706 13.4721 13.0728C12.9621 12.7402 12.43 12.4631 11.8757 12.2414V12.2524Z" fill="#ADB3C2" stroke="#ADB3C2" stroke-width="0.6" stroke-miterlimit="10"/>
</svg>
