<svg width="15" height="15" viewBox="0 0 15 15" fill="none" xmlns="http://www.w3.org/2000/svg">
<path d="M5.02743 5.03475C5.19333 5.03475 5.34021 5.03475 5.48709 5.03475C6.20207 5.03475 6.91705 5.03475 7.63204 5.03475C7.81951 5.03475 7.91339 5.13156 7.91366 5.32518C7.91366 5.65802 7.91366 5.99127 7.91366 6.37137C8.50725 5.57926 9.27969 5.15432 10.1715 4.94225C11.4979 4.62678 12.7166 4.8449 13.7525 5.77395C14.3817 6.33784 14.7349 7.06856 14.8757 7.89096C14.9514 8.33246 14.989 8.78527 14.9923 9.23323C15.0048 11.0574 14.9975 12.882 14.9975 14.7061C14.9975 14.8989 14.9005 14.9956 14.7066 14.9962C13.8569 14.9962 13.0067 14.9913 12.157 14.9998C11.9616 15.0018 11.9029 14.938 11.9037 14.7453C11.9098 13.0759 11.911 11.4064 11.9037 9.73694C11.9025 9.47034 11.8798 9.19769 11.8187 8.93877C11.5278 7.70435 10.4847 7.22407 9.32987 7.69263C8.62055 7.98023 8.241 8.54736 8.12488 9.291C8.09089 9.50872 8.0836 9.7325 8.0832 9.95345C8.07996 11.549 8.07753 13.1441 8.08603 14.7397C8.08725 14.9473 8.02291 15.0026 7.8214 15.0002C6.95833 14.9905 6.09484 14.9925 5.23136 14.999C5.06425 15.0002 5.01367 14.9477 5.01367 14.7796C5.01812 11.5954 5.01691 8.41163 5.01731 5.22743C5.01731 5.17451 5.02257 5.12119 5.02743 5.03475Z" fill="#ADB5BD"/>
<path d="M3.3395 9.99956C3.3395 11.5745 3.3395 13.1494 3.3395 14.7248C3.3395 14.995 3.33828 14.9962 3.07082 14.9966C2.21422 14.997 1.35802 14.9922 0.501418 15.0003C0.308813 15.0023 0.245691 14.9437 0.246096 14.7482C0.250951 11.5915 0.251356 8.43472 0.246096 5.27799C0.246096 5.08087 0.306386 5.02916 0.49899 5.03159C1.36207 5.04128 2.22555 5.0433 3.08863 5.03038C3.30267 5.02714 3.34516 5.10026 3.34435 5.29536C3.33788 6.86342 3.34071 8.4319 3.34071 10.0004L3.3395 9.99956Z" fill="#ADB5BD"/>
<path d="M3.58988 1.81541C3.5915 2.8111 2.79276 3.61008 1.81113 3.59514C0.792673 3.57938 -0.0012125 2.78727 1.39021e-06 1.78834C0.00121528 0.813654 0.802788 0.0126544 1.78847 0.000132479C2.77374 -0.0119855 3.58827 0.808807 3.58988 1.81541Z" fill="#ADB5BD"/>
</svg>
