<svg width="23" height="13" viewBox="0 0 23 13" fill="none" xmlns="http://www.w3.org/2000/svg">
<path d="M12.9371 6.53014C12.8998 10.0365 9.97227 12.948 6.4955 12.9375C3.04539 12.9217 0.0432082 9.95756 0.000548391 6.50908C-0.0474439 2.96056 3.06139 -0.0825295 6.65014 0.00170823C10.1962 0.085946 12.9745 2.97109 12.9371 6.53014Z" fill="#ADB3C2"/>
<path d="M13.6577 6.58253C13.6013 3.52829 15.2309 0.635062 16.9631 0.720601C18.5825 0.796076 20.1301 3.63395 20.125 6.49699C20.1147 9.44054 18.5876 12.1727 16.9272 12.218C15.2309 12.2684 13.7192 9.6569 13.6628 6.58253H13.6577Z" fill="#ADB3C2"/>
<path d="M22.1706 12.2188C20.4148 9.409 20.4148 4.04205 22.0922 1.4375C23.3821 5.10491 23.1957 8.41453 22.1706 12.2188Z" fill="#ADB3C2"/>
</svg>
