<svg width="18" height="15" viewBox="0 0 18 15" fill="none" xmlns="http://www.w3.org/2000/svg">
<path d="M8.68543 4.13921C8.7074 3.83107 8.72205 3.53576 8.75134 3.24045C8.79528 2.81308 8.89415 2.39671 9.0754 2.00419C9.40496 1.28518 9.97252 0.898158 10.747 0.802779C11.5159 0.709234 12.2556 0.854137 12.9824 1.08525C13.0392 1.10359 13.0941 1.12193 13.1564 1.14211C13.2955 0.876147 13.4713 0.643202 13.7056 0.461615C14.3153 -0.00977818 14.989 -0.130836 15.7067 0.147964C16.4281 0.428599 16.862 0.973361 16.9865 1.73639C17.197 3.03685 16.2139 4.16673 14.9195 4.14105C13.8557 4.11904 12.9769 3.23128 12.9421 2.14359C12.9348 1.91798 12.9348 1.91798 12.7206 1.85378C12.1659 1.68687 11.6038 1.56581 11.0179 1.58599C10.4614 1.60616 10.0732 1.86112 9.85717 2.37653C9.63381 2.91029 9.5679 3.46973 9.58987 4.042C9.59353 4.13555 9.62832 4.1759 9.73085 4.18324C11.2724 4.30796 12.7206 4.73167 14.0297 5.5754C14.1011 5.62126 14.156 5.61576 14.2256 5.58091C14.5332 5.425 14.8352 5.25625 15.1538 5.12602C15.65 4.92059 16.1626 4.86923 16.6807 5.04898C17.8946 5.47085 18.3651 6.82267 17.6914 7.94521C17.5028 8.25886 17.2483 8.51198 16.9737 8.74676C16.851 8.85131 16.7283 8.9577 16.6112 9.06591C16.5379 9.13378 16.4922 9.21449 16.4976 9.32454C16.5672 10.4691 16.1718 11.4559 15.4522 12.3216C14.6558 13.2791 13.6342 13.9137 12.4844 14.3503C10.8367 14.9758 9.13582 15.1317 7.39469 14.895C6.13507 14.7245 4.94685 14.3411 3.85933 13.6735C2.95855 13.1214 2.20424 12.4189 1.70076 11.4742C1.3291 10.7736 1.16066 10.0289 1.2339 9.23466C1.24122 9.14662 1.21376 9.09893 1.14419 9.04941C0.810972 8.81463 0.508883 8.545 0.291013 8.19283C-0.137405 7.50133 -0.0861413 6.52736 0.400863 5.84137C0.93547 5.08934 1.67696 4.8784 2.54661 5.0013C2.96221 5.05999 3.35035 5.21406 3.72934 5.38648C3.8337 5.43417 3.91425 5.43417 4.01861 5.37181C5.0091 4.79219 6.08014 4.43819 7.20977 4.27311C7.65833 4.20708 8.11238 4.18507 8.56277 4.14472C8.59938 4.14105 8.636 4.13921 8.68177 4.13555L8.68543 4.13921ZM9.13399 12.6518C9.85717 12.6481 10.6023 12.5583 11.3127 12.274C11.6532 12.1382 11.9718 11.9658 12.2428 11.7145C12.3892 11.5788 12.3966 11.4926 12.2812 11.3348C12.2245 11.256 12.1677 11.1753 12.1091 11.0982C12.0304 10.9973 11.9388 10.9808 11.8363 11.0542C11.3035 11.4394 10.6975 11.6448 10.0567 11.7365C8.7074 11.9291 7.41849 11.764 6.2321 11.0414C6.12957 10.979 6.04719 11.0047 5.9886 11.1111C5.941 11.1954 5.89889 11.2835 5.85495 11.3715C5.75425 11.5696 5.77073 11.6503 5.94283 11.7879C6.19365 11.9897 6.47561 12.1364 6.77403 12.2538C7.52102 12.5509 8.30279 12.6463 9.13399 12.6536V12.6518ZM14.9817 1.04673C14.4196 1.0449 13.9619 1.50345 13.9583 2.07206C13.9546 2.6425 14.4178 3.11572 14.9799 3.11389C15.5383 3.11389 15.9978 2.64616 15.9978 2.07939C15.9978 1.51079 15.5419 1.04856 14.9817 1.0449V1.04673ZM11.9187 7.25188C11.3548 7.25371 10.9026 7.71226 10.8989 8.28271C10.8971 8.85131 11.3621 9.32087 11.926 9.31904C12.4826 9.31904 12.9403 8.84764 12.9385 8.28087C12.9367 7.71226 12.4789 7.25004 11.9187 7.25188ZM5.80918 7.25188C5.24162 7.25004 4.78207 7.7141 4.78391 8.28637C4.78391 8.85498 5.24345 9.31904 5.80185 9.31904C6.36026 9.31904 6.8198 8.85498 6.8198 8.28821C6.8198 7.71777 6.36759 7.25371 5.80735 7.25188H5.80918Z" fill="#ADB3C2"/>
</svg>
