<svg width="15" height="13" viewBox="0 0 15 13" fill="none" xmlns="http://www.w3.org/2000/svg">
<path d="M5.6296 12.1598C5.66361 11.5906 5.69762 11.0214 5.73731 10.4522C5.77699 9.90057 5.80534 9.34896 5.8677 8.80322C5.8847 8.66238 5.96407 8.50394 6.06611 8.41005C8.07294 6.52635 10.0854 4.64852 12.0923 2.77069C12.2 2.67093 12.2907 2.55357 12.3871 2.44794L12.3247 2.31884C12.1546 2.37166 11.9676 2.39513 11.8258 2.48902C9.58657 3.93847 7.34731 5.39379 5.10805 6.8491C4.89829 6.98407 4.66019 7.09557 4.47878 7.26575C4.10463 7.61197 3.73614 7.58263 3.28829 7.41832C2.43227 7.10144 1.5479 6.84323 0.680542 6.56156C0.385753 6.45593 0.0115973 6.40312 0.000259262 6.02168C-0.0110788 5.64025 0.351738 5.50528 0.640858 5.38792C2.17716 4.76589 3.72481 4.15559 5.26678 3.53943C8.09562 2.41273 10.9301 1.2919 13.759 0.165207C13.7987 0.147602 13.8383 0.129997 13.878 0.118261C14.1728 0.000896721 14.4733 -0.0871265 14.7397 0.147602C15.0175 0.394067 15.0345 0.740292 14.9665 1.08065C14.2125 4.77762 13.4585 8.4746 12.6989 12.1774C12.6705 12.3183 12.6195 12.4591 12.5571 12.5882C12.3927 12.9462 12.1206 13.0811 11.7521 12.952C11.5707 12.8875 11.395 12.7877 11.2363 12.6704C10.2782 11.9486 9.3258 11.2209 8.3734 10.4933C8.25435 10.3994 8.12963 10.3113 7.98224 10.2057C7.40967 10.7749 6.84844 11.3383 6.27586 11.8899C6.11713 12.0425 5.91305 12.1305 5.72597 12.2479L5.6296 12.154V12.1598Z" fill="#ADB3C2"/>
</svg>
