<svg width="15" height="17" viewBox="0 0 15 17" fill="none" xmlns="http://www.w3.org/2000/svg">
<path d="M6.14663 6.20313L6.15999 9.16821C5.92288 9.16821 5.71248 9.16821 5.50208 9.1715C4.06771 9.19616 3.00404 10.2174 2.99068 11.5807C2.97732 12.9555 4.046 14.0639 5.41358 14.0985C6.80955 14.133 7.99011 13.0608 8.00013 11.6449C8.02017 8.71432 7.98677 5.78378 7.97341 2.85489C7.97007 1.92573 7.96506 0.998224 7.96172 0.0115116L10.8355 0C11.1527 2.38127 12.5153 3.77253 14.9866 4.08006L15 7.1142C13.5823 6.68991 12.2832 6.30016 10.9073 5.88903C10.9073 6.05348 10.9106 6.34127 10.9106 6.62742C10.9106 8.43475 10.9791 10.2454 10.8939 12.0478C10.7653 14.8073 8.39087 16.9599 5.55218 16.9994C2.68677 17.0405 0.315633 14.9043 0.0234153 12.0149C-0.240416 9.40995 1.75669 6.83628 4.42839 6.36759C4.96273 6.27385 5.51043 6.26234 6.1483 6.20313H6.14663Z" fill="#ADB3C2"/>
</svg>
