<svg width="17" height="14" viewBox="0 0 17 14" fill="none" xmlns="http://www.w3.org/2000/svg">
<path d="M0.00299812 12.4332C1.9098 12.6177 3.61573 12.1277 5.13128 10.9708V10.9542C5.11629 10.9511 5.1028 10.9451 5.08931 10.9451C4.87494 10.9315 4.66208 10.9118 4.45371 10.8619C3.45383 10.6245 2.69081 10.0604 2.16764 9.16658C2.05821 8.98056 1.97126 8.78245 1.90081 8.57828C1.89481 8.56013 1.88882 8.5435 1.88432 8.52535C1.88432 8.52233 1.88582 8.51628 1.88732 8.51325C2.06121 8.52989 2.2351 8.54804 2.40749 8.56165C2.57988 8.57526 2.75227 8.55862 2.92467 8.54047C3.09706 8.52081 3.26945 8.49359 3.43585 8.43461C2.29956 8.15634 1.46458 7.5015 0.960897 6.43228C0.748031 5.98009 0.592129 5.18007 0.659586 4.94263C1.05534 5.15738 1.47358 5.29349 1.9188 5.34794C2.01624 5.36004 2.11367 5.36457 2.21561 5.36609C1.15128 4.57211 0.62211 3.52104 0.682072 2.18716C0.706057 1.64423 0.866457 1.13609 1.14228 0.653653C2.01324 1.72287 3.04759 2.57583 4.25433 3.21252C4.86595 3.53465 5.50455 3.79023 6.16863 3.97928C6.71129 4.13353 7.26445 4.24091 7.82509 4.29989C8.00348 4.31804 8.18187 4.33014 8.36925 4.34526C8.36476 4.30745 8.36176 4.28023 8.35726 4.25452C8.28381 3.89156 8.26582 3.5286 8.30329 3.15959C8.42921 1.94065 9.18474 0.860843 10.303 0.333039C10.6029 0.192392 10.9162 0.0971146 11.2429 0.0441829C11.4948 0.00334991 11.7481 -0.0102611 12 0.00788691C12.8844 0.0714049 13.6459 0.414705 14.2725 1.04988C14.3235 1.1013 14.367 1.11038 14.4359 1.09677C15.16 0.942509 15.8406 0.677851 16.4837 0.307329C16.4972 0.299767 16.5121 0.290693 16.5256 0.283132C16.5301 0.281619 16.5346 0.280107 16.5391 0.280107C16.5391 0.440414 16.2183 1.05291 15.9635 1.37352C15.7042 1.70019 15.3953 1.97241 15.0461 2.20077C15.3849 2.17204 15.7131 2.10398 16.0384 2.01627C16.3652 1.92704 16.683 1.81361 16.9993 1.6775C17.0038 1.70775 16.9844 1.72287 16.9724 1.73951C16.6576 2.20077 16.2948 2.6212 15.8795 2.99323C15.7042 3.15052 15.5168 3.2957 15.3339 3.4424C15.2964 3.47264 15.2859 3.50138 15.2859 3.54826C15.2889 3.78116 15.2964 4.01255 15.2874 4.24545C15.2784 4.49196 15.2634 4.73695 15.2364 4.98195C15.181 5.51429 15.079 6.03756 14.9396 6.55327C14.5829 7.86749 14.0012 9.0713 13.1827 10.1572C12.2308 11.4184 11.0511 12.3984 9.62397 13.0729C8.96288 13.3845 8.27481 13.6144 7.56126 13.7671C7.27344 13.8291 6.98412 13.879 6.6918 13.9153C6.46545 13.9425 6.23909 13.9592 6.01123 13.9758C5.82085 13.9894 5.62897 14 5.43859 14C5.20324 14 4.96938 13.9909 4.73403 13.9773C4.50617 13.9637 4.27982 13.9456 4.05346 13.9168C3.73116 13.8775 3.41336 13.8185 3.09706 13.7444C2.10468 13.5145 1.17077 13.141 0.292317 12.6223C0.202373 12.5693 0.115428 12.5134 0.0269831 12.4589C0.0194878 12.4544 0.0149906 12.4483 0 12.4347L0.00299812 12.4332Z" fill="#ADB3C2"/>
</svg>
