<svg width="18" height="12" viewBox="0 0 18 12" fill="none" xmlns="http://www.w3.org/2000/svg">
<path d="M9.03641 0.0426121C10.0223 0.0426121 11.0089 0.0274451 11.994 0.0469455C13.015 0.0671682 14.0368 0.108336 15.0563 0.169004C15.4545 0.192838 15.8641 0.246283 16.2393 0.366897C16.9951 0.610292 17.4193 1.16064 17.6455 1.8706C17.8305 2.44983 17.8924 3.04496 17.9206 3.64153C17.9657 4.56744 17.9879 5.49407 17.9986 6.4207C18.0101 7.36684 17.9512 8.31008 17.8366 9.25116C17.7754 9.75167 17.6486 10.232 17.4071 10.6797C17.0593 11.3262 16.4701 11.6764 15.7326 11.7674C15.054 11.8505 14.3654 11.8722 13.6807 11.9032C12.9951 11.935 12.3081 11.9509 11.621 11.9646C10.7506 11.9819 9.88012 12 9.00966 12C8.20798 12 7.40553 11.9791 6.60385 11.9639C5.90686 11.9509 5.20835 11.9473 4.51213 11.9126C3.77083 11.8758 3.02799 11.8296 2.29127 11.7458C1.21905 11.6244 0.584731 11.0228 0.305785 10.0492C0.133068 9.44761 0.0673435 8.83298 0.0497661 8.21763C0.0146113 6.95444 -0.0144297 5.69124 0.00773316 4.42877C0.0199609 3.72892 0.121604 3.02763 0.224012 2.33283C0.269102 2.02588 0.389086 1.72037 0.523592 1.43437C0.877433 0.681071 1.53467 0.288173 2.37686 0.224616C3.52016 0.13867 4.66804 0.0989467 5.81439 0.0613903C6.88814 0.0260006 7.96266 0.0195005 9.03641 0V0.0426121ZM7.12658 8.2198C8.76128 7.41812 10.3685 6.62943 11.9978 5.82991C10.3631 5.02389 8.75135 4.22799 7.12658 3.42702V8.2198Z" fill="#ADB3C2"/>
<path d="M7.12658 8.2198V3.42702C8.75135 4.22871 10.3639 5.02389 11.9978 5.82991C10.3685 6.62943 8.76052 7.41812 7.12658 8.2198Z" fill="white"/>
</svg>
